<?xml version="1.0" encoding="UTF-8"?>
<svg id="Layer_2" data-name="Layer 2" xmlns="http://www.w3.org/2000/svg" xmlns:xlink="http://www.w3.org/1999/xlink" viewBox="0 0 807.4 1218.59">
  <defs>
    <style>
      .cls-1 {
        fill: url(#linear-gradient-2);
      }

      .cls-2 {
        fill: url(#linear-gradient-17);
      }

      .cls-3 {
        fill: #fafafa;
      }

      .cls-4 {
        fill: url(#linear-gradient-15);
      }

      .cls-5 {
        fill: #555ece;
      }

      .cls-6 {
        fill: url(#linear-gradient-18);
      }

      .cls-7 {
        fill: url(#linear-gradient-14);
      }

      .cls-8 {
        fill: url(#linear-gradient-20);
      }

      .cls-9 {
        fill: url(#linear-gradient-6);
      }

      .cls-10 {
        fill: url(#linear-gradient-11);
      }

      .cls-11 {
        fill: url(#linear-gradient-10);
      }

      .cls-12 {
        fill: url(#linear-gradient-16);
      }

      .cls-13 {
        fill: url(#linear-gradient-21);
      }

      .cls-14 {
        fill: url(#linear-gradient-5);
      }

      .cls-15 {
        fill: url(#linear-gradient-7);
      }

      .cls-16 {
        fill: url(#linear-gradient-9);
      }

      .cls-17 {
        fill: url(#linear-gradient-22);
      }

      .cls-18 {
        fill: url(#linear-gradient-3);
      }

      .cls-19 {
        fill: url(#linear-gradient);
      }

      .cls-20 {
        fill: url(#linear-gradient-23);
      }

      .cls-21 {
        fill: url(#linear-gradient-19);
      }

      .cls-22 {
        fill: url(#linear-gradient-4);
      }

      .cls-23 {
        fill: url(#linear-gradient-8);
      }

      .cls-24 {
        fill: url(#linear-gradient-12);
      }

      .cls-25 {
        fill: url(#linear-gradient-13);
      }
    </style>
    <linearGradient id="linear-gradient" x1="119.3" y1="373.75" x2="591.18" y2="14.51" gradientTransform="translate(-65.68 12.84) rotate(.54)" gradientUnits="userSpaceOnUse">
      <stop offset="0" stop-color="#969be1"/>
      <stop offset="1" stop-color="#6169d1"/>
    </linearGradient>
    <linearGradient id="linear-gradient-2" x1="59.2" y1="833.95" x2="867.75" y2="218.41" gradientTransform="translate(145.59 2.45) rotate(-1.28)" xlink:href="#linear-gradient"/>
    <linearGradient id="linear-gradient-3" x1="-495.13" y1="437.08" x2="245.48" y2="-126.75" gradientTransform="translate(399.67 15.2) rotate(-4.34)" xlink:href="#linear-gradient"/>
    <linearGradient id="linear-gradient-4" x1="90.8" y1="499.41" x2="831.38" y2="-64.39" gradientTransform="translate(-38.18 27.69) rotate(.89)" xlink:href="#linear-gradient"/>
    <linearGradient id="linear-gradient-5" x1="40.25" y1="566.49" x2="641.98" y2="108.39" gradientTransform="translate(399.67 15.2) rotate(-4.34)" xlink:href="#linear-gradient"/>
    <linearGradient id="linear-gradient-6" x1="25.69" y1="360.57" x2="916.94" y2="-317.93" gradientTransform="translate(325.11 10.84) rotate(-3.57)" xlink:href="#linear-gradient"/>
    <linearGradient id="linear-gradient-7" x1="30.48" y1="311.3" x2="1118.77" y2="-517.21" gradientTransform="translate(20.07 .76) rotate(-.54)" xlink:href="#linear-gradient"/>
    <linearGradient id="linear-gradient-8" x1="-616.49" y1="668.9" x2="222.79" y2="29.97" gradientTransform="translate(399.67 15.2) rotate(-4.34)" xlink:href="#linear-gradient"/>
    <linearGradient id="linear-gradient-9" x1="-220.29" y1="606.89" x2="588.32" y2="-8.69" gradientTransform="translate(399.67 15.2) rotate(-4.34)" xlink:href="#linear-gradient"/>
    <linearGradient id="linear-gradient-10" x1="-216.31" y1="533.12" x2="410.71" y2="55.78" gradientTransform="translate(399.67 15.2) rotate(-4.34)" xlink:href="#linear-gradient"/>
    <linearGradient id="linear-gradient-11" x1="-562.03" y1="404.02" x2="64.99" y2="-73.33" gradientTransform="translate(399.67 15.2) rotate(-4.34)" xlink:href="#linear-gradient"/>
    <linearGradient id="linear-gradient-12" x1="-230.58" y1="106.4" x2="-337.1" y2="218.32" gradientTransform="translate(399.67 15.2) rotate(-4.34)" xlink:href="#linear-gradient"/>
    <linearGradient id="linear-gradient-13" x1="-210.71" y1="-66.24" x2="-342.29" y2="72.01" gradientTransform="translate(399.67 15.2) rotate(-4.34)" xlink:href="#linear-gradient"/>
    <linearGradient id="linear-gradient-14" x1="-192.95" y1="320.36" x2="-299.47" y2="432.28" gradientTransform="translate(399.67 15.2) rotate(-4.34)" xlink:href="#linear-gradient"/>
    <linearGradient id="linear-gradient-15" x1="121.32" y1="104.08" x2="292.28" y2="189.56" gradientUnits="userSpaceOnUse">
      <stop offset="0" stop-color="#e2e4f7"/>
      <stop offset="1" stop-color="#8086da"/>
      <stop offset="1" stop-color="#555ece"/>
    </linearGradient>
    <linearGradient id="linear-gradient-16" x1="417.03" y1="40.57" x2="494.79" y2="79.45" xlink:href="#linear-gradient-15"/>
    <linearGradient id="linear-gradient-17" x1="-562.32" y1="833.69" x2="64.69" y2="356.34" gradientTransform="translate(399.67 15.2) rotate(-4.34)" xlink:href="#linear-gradient"/>
    <linearGradient id="linear-gradient-18" x1="-266.81" y1="881.5" x2="360.21" y2="404.16" gradientTransform="translate(399.67 15.2) rotate(-4.34)" xlink:href="#linear-gradient"/>
    <linearGradient id="linear-gradient-19" x1="-317.44" y1="350.37" x2="309.58" y2="-126.97" gradientTransform="translate(399.67 15.2) rotate(-4.34)" xlink:href="#linear-gradient"/>
    <linearGradient id="linear-gradient-20" x1="-425.5" y1="502.25" x2="127.71" y2="81.1" gradientTransform="translate(399.67 15.2) rotate(-4.34)" xlink:href="#linear-gradient"/>
    <linearGradient id="linear-gradient-21" x1="217.55" y1="474.38" x2="301.74" y2="516.47" xlink:href="#linear-gradient-15"/>
    <linearGradient id="linear-gradient-22" x1="544.3" y1="261.71" x2="699.1" y2="336.82" xlink:href="#linear-gradient-15"/>
    <linearGradient id="linear-gradient-23" x1="433.18" y1="498.67" x2="537.51" y2="549.29" xlink:href="#linear-gradient-15"/>
  </defs>
  <g id="Layer_1-2" data-name="Layer 1">
    <rect class="cls-3" y="0" width="807.4" height="1218.59" rx="44.58" ry="44.58"/>
    <g>
      <path class="cls-5" d="M456.29,222.79l6.04,13.48,55.81,124.61,2.4,5.35-.48,5.84-3.26,39.55-.3,3.63-1.42,3.36-52.55,124.61-5.88,13.94h-73.12l-6.58-11.42-91.22-158.31-3.04-5.29v-54.83l6.68-6.68,91.17-91.17,6.68-6.68h69.07m9.85-15.2h-85.22l-4.45,4.45-6.68,6.68-91.17,91.17-6.68,6.68-4.45,4.45v65.19l2.03,3.52,3.04,5.29,91.22,158.31,6.58,11.42,4.39,7.61h91.99l3.92-9.3,5.88-13.94,52.55-124.61,1.42-3.36,.94-2.24,.2-2.42,.3-3.63,3.26-39.55,.48-5.84,.32-3.9-1.6-3.57-2.4-5.35-55.81-124.61-6.04-13.48-4.03-8.99h0Z"/>
      <polygon class="cls-5" points="497.33 365.54 494.06 405.08 441.52 529.7 396.7 529.7 305.49 371.38 305.49 332.09 388 249.57 385.98 313.71 328.5 327.38 322.54 337.05 324.2 344.03 386.15 329.3 424.73 478.22 439.45 474.42 402.46 331.64 467.68 358.03 478.14 353.61 480.85 346.96 404.29 315.96 426.94 275.9 423.9 264.94 417.67 261.42 401.99 289.13 403.51 240.92 441.52 240.92 497.33 365.54"/>
    </g>
    <g>
      <path class="cls-19" d="M214.71,251.54l16.68,.32-9.33,8.98c-.26,.25-.27,.68-.02,.94,.25,.26,.68,.27,.94,.02l9.33-8.98-.38,19.57c0,.49,.38,.89,.87,.9,.49,0,.89-.38,.9-.87l.38-19.57,10.97,11.4c.25,.26,.68,.27,.94,.02,.26-.25,.27-.68,.02-.94l-10.97-11.4,16.68,.32c.49,0,.89-.38,.9-.87,0-.49-.38-.89-.87-.9l-16.68-.32,9.33-8.98c.26-.25,.27-.68,.02-.94-.13-.13-.3-.2-.47-.2-.17,0-.34,.06-.47,.19l-9.33,8.98,.38-19.57c0-.49-.38-.89-.87-.9-.49,0-.89,.38-.9,.87l-.38,19.57-10.97-11.4c-.13-.13-.3-.2-.47-.2-.17,0-.34,.06-.47,.19-.26,.25-.27,.68-.02,.94l10.97,11.4-16.68-.32c-.49,0-.89,.38-.9,.87,0,.49,.38,.89,.87,.9Z"/>
      <path class="cls-1" d="M497.89,592.75l28.57-.36-15.49,15.88c-.44,.45-.43,1.17,.02,1.61,.45,.44,1.17,.43,1.61-.02l15.49-15.88,.42,33.54c.01,.84,.7,1.51,1.54,1.5,.84-.01,1.51-.7,1.5-1.54l-.42-33.54,19.4,18.92c.45,.44,1.17,.43,1.61-.02,.44-.45,.43-1.17-.02-1.61l-19.4-18.92,28.57-.36c.84-.01,1.51-.7,1.5-1.54-.01-.84-.7-1.51-1.54-1.5l-28.57,.36,15.49-15.88c.44-.45,.43-1.17-.02-1.61-.23-.22-.52-.33-.81-.32s-.58,.12-.8,.34l-15.49,15.88-.42-33.54c-.01-.84-.7-1.51-1.54-1.5-.84,.01-1.51,.7-1.5,1.54l.42,33.54-19.4-18.92c-.22-.22-.52-.33-.81-.32s-.58,.12-.8,.34c-.44,.45-.43,1.17,.02,1.61l19.4,18.92-28.57,.36c-.84,.01-1.51,.7-1.5,1.54,.01,.84,.7,1.51,1.54,1.5Z"/>
      <path class="cls-18" d="M131.65,331.1l-16,.98,8.24-9.32c.23-.26,.21-.67-.06-.9-.26-.23-.67-.21-.9,.06l-8.24,9.32-1.15-18.78c-.03-.47-.43-.83-.9-.8-.47,.03-.83,.43-.8,.9l1.15,18.78-11.39-10.07c-.26-.23-.67-.21-.9,.06-.23,.26-.21,.67,.06,.9l11.39,10.07-16,.98c-.47,.03-.83,.43-.8,.9,.03,.47,.43,.83,.9,.8l16-.98-8.24,9.32c-.23,.26-.21,.67,.06,.9,.13,.12,.3,.17,.46,.16s.32-.08,.44-.21l8.24-9.32,1.15,18.78c.03,.47,.43,.83,.9,.8,.47-.03,.83-.43,.8-.9l-1.15-18.78,11.39,10.07c.13,.12,.3,.17,.46,.16,.16,0,.32-.08,.44-.21,.23-.26,.21-.67-.06-.9l-11.39-10.07,16-.98c.47-.03,.83-.43,.8-.9-.03-.47-.43-.83-.9-.8Z"/>
      <path class="cls-22" d="M251.03,389.3l-16.02-.48,9.06-8.53c.26-.24,.27-.65,.03-.9-.24-.26-.65-.27-.9-.03l-9.06,8.53,.56-18.81c.01-.47-.36-.86-.83-.88-.47-.01-.86,.36-.88,.83l-.56,18.81-10.42-11.07c-.24-.26-.65-.27-.9-.03-.26,.24-.27,.65-.03,.9l10.42,11.07-16.02-.48c-.47-.01-.86,.36-.88,.83-.01,.47,.36,.86,.83,.88l16.02,.48-9.06,8.53c-.26,.24-.27,.65-.03,.9,.12,.13,.28,.2,.45,.2,.16,0,.33-.05,.46-.17l9.06-8.53-.56,18.81c-.01,.47,.36,.86,.83,.88,.47,.01,.86-.36,.88-.83l.56-18.81,10.42,11.07c.12,.13,.28,.2,.45,.2,.16,0,.33-.05,.46-.17,.26-.24,.27-.65,.03-.9l-10.42-11.07,16.02,.48c.47,.01,.86-.36,.88-.83,.01-.47-.36-.86-.83-.88Z"/>
      <path class="cls-14" d="M639.14,449.16l-13,.8,6.7-7.57c.19-.21,.17-.54-.04-.73-.21-.19-.54-.17-.73,.04l-6.7,7.57-.93-15.26c-.02-.38-.35-.67-.73-.65-.38,.02-.67,.35-.65,.73l.93,15.26-9.25-8.18c-.21-.19-.54-.17-.73,.04-.19,.21-.17,.54,.04,.73l9.25,8.18-13,.8c-.38,.02-.67,.35-.65,.73,.02,.38,.35,.67,.73,.65l13-.8-6.7,7.57c-.19,.21-.17,.54,.04,.73,.11,.09,.24,.14,.38,.13,.13,0,.26-.07,.36-.17l6.7-7.57,.93,15.26c.02,.38,.35,.67,.73,.65,.38-.02,.67-.35,.65-.73l-.93-15.26,9.25,8.18c.11,.1,.24,.14,.38,.13s.26-.07,.36-.17c.19-.21,.17-.54-.04-.73l-9.25-8.18,13-.8c.38-.02,.67-.35,.65-.73-.02-.38-.35-.67-.73-.65Z"/>
      <path class="cls-9" d="M607.54,182.9l-19.27,.92,10.07-11.08c.29-.31,.26-.8-.05-1.09-.31-.29-.8-.26-1.09,.05l-10.07,11.08-1.08-22.62c-.03-.57-.51-1-1.07-.98-.57,.03-1,.51-.98,1.07l1.08,22.62-13.54-12.3c-.31-.29-.8-.26-1.09,.05-.29,.31-.26,.8,.05,1.09l13.54,12.3-19.27,.92c-.57,.03-1,.51-.98,1.07,.03,.57,.51,1,1.07,.98l19.27-.92-10.07,11.08c-.29,.31-.26,.8,.05,1.09,.16,.14,.36,.21,.55,.2,.2,0,.39-.09,.53-.25l10.07-11.08,1.08,22.62c.03,.57,.51,1,1.07,.98,.57-.03,1-.51,.98-1.07l-1.08-22.62,13.54,12.3c.16,.14,.36,.21,.55,.2,.2,0,.39-.09,.53-.25,.29-.31,.26-.8-.05-1.09l-13.54-12.3,19.27-.92c.57-.03,1-.51,.98-1.07-.03-.57-.51-1-1.07-.98Z"/>
      <path class="cls-15" d="M351.26,99.79l-23.56-.12,13-12.86c.37-.36,.37-.96,0-1.33-.36-.37-.96-.37-1.33,0l-13,12.86,.14-27.65c0-.69-.55-1.25-1.25-1.26-.69,0-1.25,.55-1.26,1.25l-.14,27.65-15.72-15.88c-.36-.37-.96-.37-1.33,0-.37,.36-.37,.96,0,1.33l15.72,15.88-23.56-.12c-.69,0-1.25,.55-1.26,1.25,0,.69,.55,1.26,1.25,1.26l23.56,.12-13,12.86c-.37,.36-.37,.96,0,1.33,.18,.18,.42,.28,.66,.28,.24,0,.48-.09,.67-.27l13-12.86-.14,27.65c0,.69,.55,1.25,1.25,1.26,.69,0,1.26-.55,1.26-1.25l.14-27.65,15.72,15.88c.18,.18,.42,.28,.66,.28,.24,0,.48-.09,.67-.27,.37-.36,.37-.96,0-1.33l-15.72-15.88,23.56,.12c.69,0,1.26-.55,1.26-1.25,0-.69-.55-1.26-1.25-1.26Z"/>
      <path class="cls-23" d="M128.94,472.71c.24,3.12-2.1,5.85-5.23,6.08-3.12,.24-5.85-2.1-6.08-5.23-.24-3.12,2.1-5.85,5.23-6.08,3.12-.24,5.85,2.1,6.08,5.23Z"/>
      <path class="cls-16" d="M508.58,390.29c.23,3.01-2.03,5.63-5.04,5.86-3.01,.23-5.63-2.03-5.86-5.04-.23-3.01,2.03-5.63,5.04-5.86,3.01-.23,5.63,2.03,5.86,5.04Z"/>
      <path class="cls-11" d="M647.39,189.86c.13,1.77-1.19,3.31-2.96,3.45-1.77,.13-3.31-1.19-3.45-2.96s1.19-3.31,2.96-3.45c1.77-.13,3.31,1.19,3.45,2.96Z"/>
      <path class="cls-10" d="M292.91,87.27c.13,1.77-1.19,3.31-2.96,3.45-1.77,.13-3.31-1.19-3.45-2.96-.13-1.77,1.19-3.31,2.96-3.45s3.31,1.19,3.45,2.96Z"/>
      <path class="cls-24" d="M132.24,198.18c.13,1.77-1.19,3.31-2.96,3.45s-3.31-1.19-3.45-2.96,1.19-3.31,2.96-3.45c1.77-.13,3.31,1.19,3.45,2.96Z"/>
      <path class="cls-25" d="M128.28,38.53c.17,2.19-1.47,4.09-3.66,4.26-2.19,.17-4.09-1.47-4.26-3.66-.17-2.19,1.47-4.09,3.66-4.26,2.19-.17,4.09,1.47,4.26,3.66Z"/>
      <path class="cls-7" d="M185.93,408.68c.13,1.77-1.19,3.31-2.96,3.45-1.77,.13-3.31-1.19-3.45-2.96-.13-1.77,1.19-3.31,2.96-3.45,1.77-.13,3.31,1.19,3.45,2.96Z"/>
      <path class="cls-4" d="M240.71,131.74l-.48-2.2-.69,3.81c-2.2,12.12-8.98,22.93-18.93,30.18h0c9.69,8.22,16.41,19.39,19.14,31.8l.48,2.2,.69-3.81c2.2-12.12,8.98-22.93,18.93-30.18h0c-9.69-8.22-16.41-19.39-19.14-31.8Z"/>
      <path class="cls-12" d="M471.33,53.15l-.22-1-.31,1.73c-1,5.51-4.08,10.43-8.61,13.73h0c4.41,3.74,7.46,8.82,8.71,14.46l.22,1,.31-1.73c1-5.51,4.08-10.43,8.61-13.73h0c-4.41-3.74-7.46-8.82-8.71-14.46Z"/>
      <path class="cls-2" d="M325.1,515.71c.13,1.77-1.19,3.31-2.96,3.45s-3.31-1.19-3.45-2.96,1.19-3.31,2.96-3.45c1.77-.13,3.31,1.19,3.45,2.96Z"/>
      <path class="cls-6" d="M623.37,541.05c.13,1.77-1.19,3.31-2.96,3.45-1.77,.13-3.31-1.19-3.45-2.96-.13-1.77,1.19-3.31,2.96-3.45s3.31,1.19,3.45,2.96Z"/>
      <path class="cls-21" d="M532.74,15.28c.13,1.77-1.19,3.31-2.96,3.45-1.77,.13-3.31-1.19-3.45-2.96-.13-1.77,1.19-3.31,2.96-3.45s3.31,1.19,3.45,2.96Z"/>
      <path class="cls-8" d="M386.67,218.83c.12,1.56-1.05,2.92-2.61,3.04-1.56,.12-2.92-1.05-3.04-2.61-.12-1.56,1.05-2.92,2.61-3.04,1.56-.12,2.92,1.05,3.04,2.61Z"/>
      <path class="cls-13" d="M276.34,488l-.24-1.08-.34,1.88c-1.08,5.97-4.42,11.29-9.32,14.86h0c4.77,4.05,8.08,9.55,9.43,15.66l.24,1.08,.34-1.88c1.08-5.97,4.42-11.29,9.32-14.86h0c-4.77-4.05-8.08-9.55-9.43-15.66Z"/>
      <path class="cls-17" d="M658.7,335.78l.28,1.27,.4-2.21c1.28-7.02,5.2-13.29,10.97-17.49h0c-5.61-4.76-9.51-11.24-11.09-18.43l-.28-1.27-.4,2.21c-1.28,7.02-5.2,13.29-10.97,17.49h0c5.61,4.76,9.51,11.24,11.09,18.43Z"/>
      <path class="cls-20" d="M510.27,548.59l.19,.86,.27-1.49c.86-4.73,3.51-8.96,7.4-11.79h0c-3.78-3.21-6.41-7.57-7.48-12.42l-.19-.86-.27,1.49c-.86,4.73-3.51,8.96-7.4,11.79h0c3.78,3.21,6.41,7.57,7.48,12.42Z"/>
    </g>
  </g>
</svg>