<?xml version="1.0" encoding="UTF-8"?>
<svg id="Layer_2" data-name="Layer 2" xmlns="http://www.w3.org/2000/svg" xmlns:xlink="http://www.w3.org/1999/xlink" viewBox="0 0 607.97 607.97">
  <defs>
    <style>
      .cls-1 {
        fill: #fff;
      }

      .cls-2 {
        fill: url(#linear-gradient);
      }
    </style>
    <linearGradient id="linear-gradient" x1="243.04" y1="502.76" x2="375.98" y2="69.15" gradientUnits="userSpaceOnUse">
      <stop offset="0" stop-color="#555ece"/>
      <stop offset="1" stop-color="#7744d1"/>
    </linearGradient>
  </defs>
  <g id="Layer_1-2" data-name="Layer 1">
    <rect class="cls-2" width="607.97" height="607.97"/>
    <g>
      <g>
        <g>
          <polygon class="cls-1" points="456.49 261.15 508.1 313 504.8 316.08 482.6 316.08 437.4 270.88 437.4 251.42 461.56 226.92 483.79 226.92 487.08 230.22 456.49 261.15"/>
          <polygon class="cls-1" points="437.47 309.76 444.31 316.08 464.35 316.08 467.64 313 441.04 286.81 437.47 290.45 437.47 309.76"/>
          <polygon class="cls-1" points="321.84 301.3 322.16 289.24 336.33 275.07 340.7 274.91 340.7 315.06 335.4 315.06 321.84 301.3"/>
          <polygon class="cls-1" points="146.99 273.05 159.39 273.05 173.63 286.91 173.63 291.74 133.23 291.74 133.23 286.91 146.99 273.05"/>
          <polygon class="cls-1" points="113.63 291.74 126.02 291.74 140.27 277.88 140.27 273.05 99.87 273.05 99.87 277.88 113.63 291.74"/>
          <polygon class="cls-1" points="340.7 287.63 311.8 316.08 291.76 316.08 288.46 313 337.2 264.67 340.84 268.31 340.7 287.63"/>
          <polygon class="cls-1" points="300.89 316.08 153.71 315.77 139.47 301.6 139.47 297.08 314.65 297.37 314.65 302.52 300.89 316.08"/>
        </g>
        <polygon class="cls-1" points="433.75 367.29 416.67 381.05 413.37 377.97 413.37 307.61 429.01 291.89 433.75 291.89 433.75 367.29"/>
        <polygon class="cls-1" points="391.29 302.32 374.21 316.08 370.91 313 370.91 242.64 386.54 226.92 391.29 226.92 391.29 302.32"/>
      </g>
      <g>
        <path class="cls-1" d="M225.3,380.76l-6.19-7.77v7.77h-4.61v-24.38h4.61v13.87l6.13-7.74h6l-8.04,9.16,8.1,9.09h-6Z"/>
        <path class="cls-1" d="M243.53,366.66c.74-1.43,1.73-2.53,3-3.29,1.26-.77,2.67-1.15,4.23-1.15,1.36,0,2.55,.27,3.57,.82s1.84,1.24,2.45,2.08v-2.6h4.65v18.25h-4.65v-2.67c-.59,.86-1.41,1.56-2.45,2.12-1.04,.56-2.25,.84-3.61,.84-1.54,0-2.94-.4-4.2-1.19-1.26-.79-2.26-1.91-3-3.34-.74-1.44-1.1-3.09-1.1-4.96s.37-3.48,1.1-4.91Zm12.6,2.09c-.44-.8-1.03-1.42-1.78-1.84-.75-.43-1.55-.64-2.4-.64s-1.65,.21-2.37,.63c-.73,.42-1.31,1.03-1.76,1.83-.45,.8-.68,1.75-.68,2.85s.23,2.06,.68,2.88c.45,.82,1.04,1.46,1.78,1.89,.74,.44,1.52,.66,2.36,.66s1.66-.21,2.4-.64c.75-.43,1.34-1.04,1.78-1.84,.44-.8,.66-1.76,.66-2.88s-.22-2.08-.66-2.88Z"/>
        <path class="cls-1" d="M282.77,363.06c.96-.55,2.05-.82,3.28-.82v4.84h-1.22c-1.45,0-2.54,.34-3.28,1.02-.74,.68-1.1,1.87-1.1,3.56v9.09h-4.61v-18.25h4.61v2.83c.59-.97,1.37-1.72,2.32-2.27Z"/>
        <path class="cls-1" d="M298.95,366.66c.74-1.43,1.73-2.53,3-3.29,1.26-.77,2.67-1.15,4.23-1.15,1.36,0,2.55,.27,3.57,.82s1.84,1.24,2.45,2.08v-2.6h4.65v18.25h-4.65v-2.67c-.59,.86-1.41,1.56-2.45,2.12-1.04,.56-2.25,.84-3.61,.84-1.54,0-2.94-.4-4.2-1.19-1.26-.79-2.26-1.91-3-3.34-.74-1.44-1.1-3.09-1.1-4.96s.37-3.48,1.1-4.91Zm12.6,2.09c-.44-.8-1.03-1.42-1.78-1.84-.75-.43-1.55-.64-2.4-.64s-1.65,.21-2.37,.63c-.73,.42-1.31,1.03-1.76,1.83-.45,.8-.68,1.75-.68,2.85s.23,2.06,.68,2.88c.45,.82,1.04,1.46,1.78,1.89,.74,.44,1.52,.66,2.36,.66s1.66-.21,2.4-.64c.75-.43,1.34-1.04,1.78-1.84,.44-.8,.66-1.76,.66-2.88s-.22-2.08-.66-2.88Z"/>
        <path class="cls-1" d="M359.33,364.3c1.37,1.37,2.06,3.29,2.06,5.75v10.71h-4.61v-10.08c0-1.43-.36-2.52-1.09-3.28-.72-.76-1.71-1.14-2.97-1.14s-2.25,.38-2.98,1.14c-.74,.76-1.1,1.85-1.1,3.28v10.08h-4.61v-10.08c0-1.43-.36-2.52-1.09-3.28-.73-.76-1.71-1.14-2.97-1.14s-2.28,.38-3.01,1.14c-.74,.76-1.1,1.85-1.1,3.28v10.08h-4.61v-18.25h4.61v2.21c.59-.77,1.36-1.37,2.29-1.81,.93-.44,1.96-.66,3.08-.66,1.43,0,2.7,.3,3.82,.91,1.12,.6,1.99,1.47,2.6,2.59,.59-1.05,1.45-1.9,2.59-2.54,1.13-.64,2.36-.96,3.67-.96,2.24,0,4.05,.69,5.42,2.06Z"/>
        <path class="cls-1" d="M375.57,366.66c.74-1.43,1.73-2.53,3-3.29,1.26-.77,2.67-1.15,4.23-1.15,1.36,0,2.55,.27,3.57,.82s1.84,1.24,2.45,2.08v-2.6h4.65v18.25h-4.65v-2.67c-.59,.86-1.41,1.56-2.45,2.12-1.04,.56-2.25,.84-3.61,.84-1.54,0-2.94-.4-4.2-1.19-1.26-.79-2.26-1.91-3-3.34-.74-1.44-1.1-3.09-1.1-4.96s.37-3.48,1.1-4.91Zm12.6,2.09c-.44-.8-1.03-1.42-1.78-1.84-.75-.43-1.55-.64-2.4-.64s-1.65,.21-2.37,.63c-.73,.42-1.31,1.03-1.76,1.83-.45,.8-.68,1.75-.68,2.85s.23,2.06,.68,2.88c.45,.82,1.04,1.46,1.78,1.89,.74,.44,1.52,.66,2.36,.66s1.66-.21,2.4-.64c.75-.43,1.34-1.04,1.78-1.84,.44-.8,.66-1.76,.66-2.88s-.22-2.08-.66-2.88Z"/>
      </g>
    </g>
  </g>
</svg>