<svg xmlns="http://www.w3.org/2000/svg" id="Layer_2" data-name="Layer 2" viewBox="0 0 430.15 219.82"><defs><style>.cls-1{fill:#fff}</style></defs><g id="Layer_1-2" data-name="Layer 1"><g><polygon points="356.54 48.82 400.17 4.7 395.47 0 363.77 0 329.31 34.94 329.31 62.7 393.78 127.16 425.44 127.16 430.15 122.77 356.54 48.82" class="cls-1"/><polygon points="329.41 90.6 329.41 118.15 339.16 127.16 367.74 127.16 372.45 122.77 334.5 85.41 329.41 90.6" class="cls-1"/><polygon points="105.2 85.56 84.88 65.78 67.2 65.78 47.58 85.56 47.58 92.45 105.2 92.45 105.2 85.56" class="cls-1"/><polygon points="57.62 65.78 0 65.78 0 72.67 19.62 92.45 37.3 92.45 57.62 72.67 57.62 65.78" class="cls-1"/><polygon points="139.44 100.42 56.47 100.07 56.47 106.5 76.79 126.71 121.5 127.06 121.61 127.16 150.19 127.16 168 109.62 183.85 125.7 191.4 125.7 191.4 86.59 191.41 86.58 191.61 59.03 186.42 53.84 139.44 100.42" class="cls-1"/><polygon points="295.05 115.07 295.05 215.42 299.76 219.82 324.11 200.19 324.11 92.65 317.35 92.65 295.05 115.07" class="cls-1"/><polygon points="234.49 23.5 234.49 122.77 239.2 127.16 263.55 107.54 263.55 1.08 256.79 1.08 234.49 23.5" class="cls-1"/></g></g></svg>