<?xml version="1.0" encoding="UTF-8"?>
<svg id="Layer_2" data-name="Layer 2" xmlns="http://www.w3.org/2000/svg" viewBox="0 0 699.7 134.65">
  <defs>
    <style>
      .cls-1 {
        fill: #555ece;
      }
    </style>
  </defs>
  <g id="Layer_1-2" data-name="Layer 1">
    <g>
      <polygon class="cls-1" points="38.63 125.63 48.29 134.65 76.87 134.65 81.57 130.25 43.63 92.89 38.44 98.08 38.63 125.63"/>
      <g>
        <g>
          <polygon class="cls-1" points="65.67 56.3 139.28 130.25 134.57 134.65 102.91 134.65 38.44 70.18 38.44 42.42 72.9 7.48 104.6 7.48 109.3 12.19 65.67 56.3"/>
          <polygon class="cls-1" points="29.06 115.02 4.7 134.65 0 130.25 0 29.9 22.3 7.48 29.06 7.48 29.06 115.02"/>
        </g>
        <path class="cls-1" d="M292.41,134.65l-60.66-60.54,10.26-24.78h35.76c6.25,0,6.42-8.6,6.42-9.58,0-3.19-.93-6.24-2.5-8.17-.96-1.19-2.54-2.55-6.19-2.55h-33.37l-10.39-10.39V0h43.75c11.58,0,21.78,4.72,28.73,13.29,5.79,7.14,8.98,16.54,8.98,26.46,0,22.01-15.24,38.61-35.45,38.61h-.72l51.93,51.8-4.48,4.48h-32.09Z"/>
        <polygon class="cls-1" points="222.6 128.73 218.54 134.65 211.81 134.65 186.73 117.29 162.19 53.33 145.34 97.9 135.87 99.92 119.8 83.79 148.27 7.68 175.47 7.49 222.6 128.73"/>
        <polygon class="cls-1" points="590.3 128.73 586.24 134.65 579.51 134.65 554.44 117.29 529.89 53.33 520.74 77.52 513.64 95.85 496.74 95.9 489.68 77.96 480.23 53.33 455.94 117.56 451.05 120.9 443.74 102.1 437.24 85.39 466.31 7.67 493.51 7.48 504.99 37.02 515.97 7.67 543.17 7.48 590.3 128.73"/>
        <polygon class="cls-1" points="430.59 128.73 426.53 134.65 419.8 134.65 394.72 117.29 370.18 53.33 353.32 97.9 343.86 99.92 327.79 83.79 356.26 7.68 383.46 7.49 430.59 128.73"/>
        <polygon class="cls-1" points="699.7 128.73 695.64 134.65 688.9 134.65 663.83 117.3 639.28 53.33 618.63 108.35 607.87 108.41 597.59 81.96 625.37 7.68 652.56 7.49 699.7 128.73"/>
      </g>
    </g>
  </g>
</svg>