<?xml version="1.0" encoding="UTF-8"?>
<svg id="Layer_2" data-name="Layer 2" xmlns="http://www.w3.org/2000/svg" viewBox="0 0 368.15 70.84">
  <defs>
    <style>
      .cls-1 {
        fill: #fff;
      }
    </style>
  </defs>
  <g id="Layer_1-2" data-name="Layer 1">
    <g>
      <polygon class="cls-1" points="20.33 66.1 25.41 70.84 40.44 70.84 42.92 68.53 22.96 48.87 20.23 51.61 20.33 66.1"/>
      <g>
        <g>
          <polygon class="cls-1" points="34.55 29.62 73.28 68.53 70.8 70.84 54.14 70.84 20.23 36.93 20.23 22.32 38.36 3.94 55.03 3.94 57.51 6.41 34.55 29.62"/>
          <polygon class="cls-1" points="15.29 60.52 2.48 70.84 0 68.53 0 15.73 11.73 3.94 15.29 3.94 15.29 60.52"/>
        </g>
        <path class="cls-1" d="M153.85,70.84l-31.92-31.85,5.4-13.04h18.81c3.29,0,3.38-4.53,3.38-5.04,0-1.68-.49-3.28-1.32-4.3-.51-.62-1.33-1.34-3.26-1.34h-17.56l-5.46-5.46V0h23.02c6.09,0,11.46,2.48,15.12,7,3.05,3.76,4.73,8.7,4.73,13.92,0,11.58-8.02,20.32-18.65,20.32h-.38l27.32,27.26-2.36,2.36h-16.88Z"/>
        <polygon class="cls-1" points="117.12 67.73 114.99 70.84 111.45 70.84 98.25 61.71 85.34 28.06 76.47 51.51 71.49 52.57 63.04 44.08 78.01 4.04 92.33 3.94 117.12 67.73"/>
        <polygon class="cls-1" points="310.59 67.73 308.45 70.84 304.91 70.84 291.72 61.71 278.8 28.06 273.99 40.79 270.25 50.43 261.36 50.46 257.65 41.02 252.68 28.06 239.9 61.86 237.32 63.61 233.48 53.72 230.06 44.93 245.35 4.04 259.66 3.94 265.7 19.48 271.48 4.04 285.79 3.94 310.59 67.73"/>
        <polygon class="cls-1" points="226.56 67.73 224.42 70.84 220.88 70.84 207.68 61.71 194.77 28.06 185.9 51.51 180.92 52.57 172.47 44.08 187.45 4.04 201.76 3.94 226.56 67.73"/>
        <polygon class="cls-1" points="368.15 67.73 366.01 70.84 362.46 70.84 349.27 61.72 336.36 28.06 325.49 57.01 319.83 57.04 314.42 43.12 329.04 4.04 343.34 3.94 368.15 67.73"/>
      </g>
    </g>
  </g>
</svg>