<svg id="Layer_2" data-name="Layer 2" xmlns="http://www.w3.org/2000/svg" viewBox="0 0 699.7 134.65">
    <defs style="fill:#555ece">
    </defs>
    <g id="Layer_1-2" data-name="Layer 1">
        <path class="cls-1" d="m38.63 125.63 9.66 9.02h28.58l4.7-4.4-37.94-37.36-5.19 5.19.19 27.55zM65.67 56.3l73.61 73.95-4.71 4.4h-31.66L38.44 70.18V42.42L72.9 7.48h31.7l4.7 4.71L65.67 56.3zM29.06 115.02 4.7 134.65l-4.7-4.4V29.9L22.3 7.48h6.76v107.54zM292.41 134.65l-60.66-60.54 10.26-24.78h35.76c6.25 0 6.42-8.6 6.42-9.58 0-3.19-.93-6.24-2.5-8.17-.96-1.19-2.54-2.55-6.19-2.55h-33.37l-10.39-10.39V0h43.75c11.58 0 21.78 4.72 28.73 13.29 5.79 7.14 8.98 16.54 8.98 26.46 0 22.01-15.24 38.61-35.45 38.61h-.72l51.93 51.8-4.48 4.48h-32.09Z"/>
        <path class="cls-1" d="m222.6 128.73-4.06 5.92h-6.73l-25.08-17.36-24.54-63.96-16.85 44.57-9.47 2.02-16.07-16.13 28.47-76.11 27.2-.19 47.13 121.24zM590.3 128.73l-4.06 5.92h-6.73l-25.07-17.36-24.55-63.96-9.15 24.19-7.1 18.33-16.9.05-7.06-17.94-9.45-24.63-24.29 64.23-4.89 3.34-7.31-18.8-6.5-16.71 29.07-77.72 27.2-.19 11.48 29.54 10.98-29.35 27.2-.19 47.13 121.25zM430.59 128.73l-4.06 5.92h-6.73l-25.08-17.36-24.54-63.96-16.86 44.57-9.46 2.02-16.07-16.13 28.47-76.11 27.2-.19 47.13 121.24zM699.7 128.73l-4.06 5.92h-6.74l-25.07-17.35-24.55-63.97-20.65 55.02-10.76.06-10.28-26.45 27.78-74.28 27.19-.19 47.14 121.24z"/>
    </g>
</svg>
